<?xml version="1.0" encoding="UTF-8"?>
<svg id="Calque_1" xmlns="http://www.w3.org/2000/svg" version="1.1" viewBox="0 0 8 8">
  <!-- Generator: Adobe Illustrator 29.6.1, SVG Export Plug-In . SVG Version: 2.1.1 Build 9)  -->
  <defs>
    <style>
      .st0 {
        fill: #d41128;
      }

      .st1 {
        fill: #fff;
      }
    </style>
  </defs>
  <rect class="st0" x="0" y="0" width="8" height="8.01" rx=".99" ry=".99"/>
  <path class="st1" d="M2.83.44c.06-.13.17-.25.32-.32.27-.13.78-.24,1.47.26.49.36.55.71.49.93s-.25.39-.49.46c-.29.09-.79.15-1.34-.23-.62-.42-.57-.86-.45-1.11Z"/>
  <path class="st1" d="M2.66,2.65c-.05-.23.14-.42.37-.4.31.02.53.31.93.3,1.11-.03,1.13.43,1.13.43,0,0,.09.29-.31.79-.46.56-.05,1.03-.05,1.03,0,0,.25.3.23.56-.02.26-.2.57-.27.71-.07.14-.33.54-.15.99.18.45.12.87-.07.93-.17.05-.34,0-.78-.64-.35-.51-.62-.78-.67-1.38-.02-.28.01-.57.09-.84.06-.2.13-.46.22-.65.17-.37-.04-.54-.16-.73-.07-.1-.39-.61-.5-1.09h0Z"/>
</svg>